<?xml version="1.0" encoding="UTF-8" standalone="no"?>
<!-- Created with Inkscape (http://www.inkscape.org/) -->

<svg
   xmlns:dc="http://purl.org/dc/elements/1.1/"
   xmlns:cc="http://creativecommons.org/ns#"
   xmlns:rdf="http://www.w3.org/1999/02/22-rdf-syntax-ns#"
   xmlns:svg="http://www.w3.org/2000/svg"
   xmlns="http://www.w3.org/2000/svg"
   xmlns:xlink="http://www.w3.org/1999/xlink"
   xmlns:sodipodi="http://sodipodi.sourceforge.net/DTD/sodipodi-0.dtd"
   xmlns:inkscape="http://www.inkscape.org/namespaces/inkscape"
   id="svg2226"
   sodipodi:version="0.32"
   inkscape:version="0.92.3 (2405546, 2018-03-11)"
   width="314"
   height="360"
   viewBox="0 0 314 360"
   version="1.0"
   sodipodi:docname="leaf2.svg"
   inkscape:output_extension="org.inkscape.output.svg.inkscape">
  <metadata
     id="metadata2231">
    <rdf:RDF>
      <cc:Work
         rdf:about="">
        <dc:format>image/svg+xml</dc:format>
        <dc:type
           rdf:resource="http://purl.org/dc/dcmitype/StillImage" />
        <dc:title />
      </cc:Work>
    </rdf:RDF>
  </metadata>
  <defs
     id="defs2229">
    <linearGradient
       inkscape:collect="always"
       id="linearGradient832">
      <stop
         style="stop-color:#b15d00;stop-opacity:1"
         offset="0"
         id="stop828" />
      <stop
         style="stop-color:#815f00;stop-opacity:1"
         offset="1"
         id="stop830" />
    </linearGradient>
    <radialGradient
       inkscape:collect="always"
       xlink:href="#linearGradient832"
       id="radialGradient836"
       cx="165.7942"
       cy="144.4986"
       fx="165.7942"
       fy="144.4986"
       r="156.24513"
       gradientTransform="matrix(1.0000001,0,0,1.1509126,-1.6750878e-5,-27.19076)"
       gradientUnits="userSpaceOnUse" />
  </defs>
  <sodipodi:namedview
     inkscape:window-height="837"
     inkscape:window-width="1600"
     inkscape:pageshadow="2"
     inkscape:pageopacity="0.0"
     guidetolerance="10.0"
     gridtolerance="10.0"
     objecttolerance="10.0"
     borderopacity="1.0"
     bordercolor="#666666"
     pagecolor="#ffffff"
     id="base"
     inkscape:zoom="1.0472222"
     inkscape:cx="-65.661923"
     inkscape:cy="208.56835"
     inkscape:window-x="-8"
     inkscape:window-y="-8"
     inkscape:current-layer="svg2226"
     showgrid="false"
     inkscape:window-maximized="1" />
  <path
     style="fill:url(#radialGradient836);fill-opacity:1;stroke:#563600;stroke-width:1.5;stroke-linecap:round;stroke-linejoin:round;stroke-miterlimit:4;stroke-dasharray:none;stroke-opacity:1"
     d="m 252.0629,357.21955 c -2.475,-1.21242 -6.80645,-4.54978 -9.62545,-7.41635 -4.16139,-4.23163 -5.72712,-6.87332 -8.3243,-14.0448 -4.07704,-11.2577 -13.71611,-43.04443 -23.90659,-78.83659 -7.48658,-26.29522 -13.87809,-45.49627 -15.14448,-45.49627 -0.30637,0 -1.10333,3.9375 -1.77102,8.75 -0.66769,4.8125 -1.75913,10.49111 -2.42541,12.61912 -1.37651,4.39636 -7.7994,11.97385 -13.4742,15.89637 -3.38388,2.33899 -4.29314,2.5381 -7.82855,1.71429 -6.79531,-1.58342 -9.95497,-1.15723 -14.19581,1.91482 -2.19773,1.59204 -5.37602,3.6083 -7.06285,4.4806 -2.71941,1.40626 -21.0938,6.6248 -23.32582,6.6248 -0.47603,0 -0.59074,-1.37389 -0.2549,-3.05309 0.58995,-2.94974 0.51294,-3.02883 -2.275,-2.33629 -5.00487,1.24323 -8.98498,3.20077 -13.50523,6.6423 -2.40922,1.83427 -5.01242,3.72227 -5.7849,4.19556 -1.65362,1.01317 -1.5383,0.80361 4.64943,-8.44848 6.23718,-9.32602 9.4959,-16.45083 10.02028,-21.90817 0.45023,-4.68561 0.39885,-4.7861 -3.35818,-6.56893 -6.19603,-2.9402 -24.324771,-5.43749 -49.165754,-6.77272 l -23.25873,-1.25018 4.7193,-3.5 c 7.09719,-5.26353 10.50957,-10.69457 10.60281,-16.87508 0.09727,-6.448 -1.79247,-8.59508 -12.44084,-14.13496 -4.32509,-2.25017 -7.86381,-4.24199 -7.86381,-4.42628 0,-0.18428 0.67223,-1.624 1.49384,-3.19937 2.75768,-5.2876 1.18143,-9.92952 -4.34157,-12.78557 -3.51971,-1.82011 -15.50553,-4.20519 -25.5588006,-5.086 L 0.74982541,163.22556 7.5108054,159.4546 c 5.8063606,-3.23853 7.9816806,-3.86883 15.4065306,-4.46404 10.91427,-0.87494 27.08994,-3.96778 30.80838,-5.89065 4.62192,-2.39009 6.63086,-5.2201 6.12967,-8.63492 l -0.4461,-3.03945 h 16.87647 c 19.683735,0 21.742218,-0.60236 23.633772,-6.91582 1.548252,-5.16757 0.645342,-6.99844 -9.170586,-18.59574 -6.148396,-7.26419 -7.989576,-10.33483 -11.228106,-18.725668 -2.75443,-7.136589 -5.55171,-12.20799 -9.68091,-17.551309 -3.19394,-4.133061 -5.6172,-7.704619 -5.38503,-7.936796 0.23218,-0.232178 1.76672,0.273169 3.4101,1.122991 7.50037,3.878593 15.13323,2.683059 18.823005,-2.948245 2.847263,-4.345473 0.812347,-16.581368 -5.105525,-30.699414 -0.62057,-1.480458 -0.17304,-1.75 2.90555,-1.75 5.36527,0 10.389694,-2.414005 11.125386,-5.345236 0.798681,-3.182199 -2.140005,-9.858216 -8.079477,-18.3547103 -2.512819,-3.594617 -4.410199,-6.694222 -4.216409,-6.888012 0.95922,-0.9592259 17.102834,11.1488773 20.899834,15.6753883 2.39005,2.849244 5.58605,6.582672 7.10222,8.296507 l 2.75668,3.116063 1.76738,-2.08176 1.76738,-2.08176 4.47594,2.83184 c 4.18368,2.64693 12.71539,5.83168 15.62264,5.83168 2.67034,0 8.13244,-6.159224 11.43011,-12.888915 1.88275,-3.842224 3.69857,-7.014037 4.03514,-7.048473 0.99425,-0.101728 2.88805,10.829308 2.88805,16.669911 0,6.203846 0.7413,7.890747 6.48952,14.767477 2.2987,2.75 6.77528,9.05 9.94794,14 8.12532,12.677132 13.11675,17.499999 18.11167,17.499999 2.769,0 7.39971,-5.936245 12.44798,-15.957423 2.64393,-5.248417 6.34709,-11.310591 8.22922,-13.471497 l 3.42207,-3.928922 4.14609,1.658937 c 2.28035,0.912416 4.81321,1.402939 5.62858,1.090052 1.61811,-0.620924 6.38172,-7.698787 9.1809,-13.641146 1.4151,-3.004105 2.31678,-3.75 4.5332,-3.75 2.16966,0 3.46187,-1.010323 5.98775,-4.68157 5.89639,-8.570099 19.26497,-24.64877527 19.61674,-23.5934642 0.19072,0.572168 -1.35481,5.2556189 -3.43452,10.4076702 -3.04777,7.550234 -3.77649,10.628268 -3.75658,15.867364 0.0412,10.848354 0.97985,13.700737 4.98502,15.149028 l 3.46442,1.252749 v 8.856291 c 0,10.987333 1.43803,16.928833 5.02728,20.771132 2.57853,2.760325 3.28329,2.970799 9.94761,2.970799 5.0256,0 9.43426,-0.759257 14.72886,-2.536596 4.15602,-1.395128 7.72544,-2.367545 7.93206,-2.160928 0.20662,0.206617 -3.22715,3.838088 -7.63058,8.069935 -8.68732,8.348796 -9.43662,9.667742 -13.47597,23.720721 -1.48714,5.17378 -4.47034,13.55992 -6.62934,18.63586 -7.08582,16.65927 -7.47477,22.83609 -1.63543,25.97246 2.60615,1.3998 6.83407,1.84608 21.73551,2.29434 11.97681,0.36027 17.79479,0.86758 16.5,1.43875 -1.1,0.48524 -6.99753,2.79369 -13.10562,5.12988 -6.1081,2.33619 -12.8581,5.15517 -15,6.2644 -4.30982,2.23192 -13.1566,11.01538 -21.70018,21.54488 -3.06751,3.78054 -7.95233,8.65828 -10.85516,10.83942 -5.64729,4.24329 -22.25814,12.63363 -30.12399,15.21598 -6.5195,2.14035 -9.31163,1.97193 -15.56435,-0.93887 -2.94211,-1.36963 -5.75461,-2.49023 -6.25,-2.49023 -1.79728,0 -0.82113,3.89294 3.04466,12.14233 2.23998,4.77999 6.37262,17.267 9.56077,28.88843 9.62179,35.07326 19.42002,68.70931 22.36881,76.78918 4.51806,12.37976 11.05862,21.45948 19.24521,26.71652 2.16334,1.3892 3.81781,3.35867 4.11133,4.89411 0.5965,3.1204 0.42132,3.13257 -5.23148,0.36344 z"
     id="path2252"
     inkscape:connector-curvature="0"
	 onclick="window.parent.testClick(window);"
     inkscape:label="leafmain" />
</svg>
