<?xml version="1.0" encoding="UTF-8" standalone="no"?>
<!-- Created with Inkscape (http://www.inkscape.org/) -->

<svg
   xmlns:dc="http://purl.org/dc/elements/1.1/"
   xmlns:cc="http://creativecommons.org/ns#"
   xmlns:rdf="http://www.w3.org/1999/02/22-rdf-syntax-ns#"
   xmlns:svg="http://www.w3.org/2000/svg"
   xmlns="http://www.w3.org/2000/svg"
   xmlns:sodipodi="http://sodipodi.sourceforge.net/DTD/sodipodi-0.dtd"
   xmlns:inkscape="http://www.inkscape.org/namespaces/inkscape"
   width="73mm"
   height="89mm"
   viewBox="0 0 73 89"
   version="1.1"
   id="svg851"
   inkscape:version="0.92.3 (2405546, 2018-03-11)"
   sodipodi:docname="leaf1.svg"
   >
  <defs
     id="defs845" />
  <sodipodi:namedview
     id="base"
     pagecolor="#ffffff"
     bordercolor="#666666"
     borderopacity="1.0"
     inkscape:pageopacity="0.0"
     inkscape:pageshadow="2"
     inkscape:zoom="0.35"
     inkscape:cx="-262.85714"
     inkscape:cy="180"
     inkscape:document-units="mm"
     inkscape:current-layer="svg851"
     showgrid="false"
     inkscape:window-width="1600"
     inkscape:window-height="837"
     inkscape:window-x="-8"
     inkscape:window-y="-8"
     inkscape:window-maximized="1" />
  <metadata
     id="metadata848">
    <rdf:RDF>
      <cc:Work
         rdf:about="">
        <dc:format>image/svg+xml</dc:format>
        <dc:type
           rdf:resource="http://purl.org/dc/dcmitype/StillImage" />
        <dc:title />
      </cc:Work>
    </rdf:RDF>
  </metadata>
  <path
     d="M 56.927273,67.31396 C 66.758978,62.23401 68.442574,52.85483 72.181719,45.84234 63.631947,41.9514 54.016539,44.54442 46.958223,48.82953 58.352689,37.59101 67.111667,26.30468 56.716664,14.6773 53.946265,17.00153 50.308377,18.54585 49.149899,21.98099 48.738366,15.11818 50.816483,1.7351605 40.383194,0.0874405 45.845861,7.4294705 34.36858,14.47304 31.991405,21.67839 31.667978,18.0495 31.621544,14.42301 29.325754,10.76041 12.468621,20.98846 28.313273,34.77828 26.411078,46.17767 23.691082,38.28372 16.053593,35.91157 10.119333,29.2991 1.2775142,36.39028 3.7522679,43.67976 7.4463278,50.99002 4.912704,54.06236 2.4924808,50.6731 0,51.43221 0.9898857,62.23248 13.492347,73.96424 23.672508,71.35285 20.593023,78.33026 16.68129,84.915 13.255518,85.74047 12.368317,85.95431 11.822244,86.84675 12.03608,87.73395 12.218457,88.49124 12.895261,89 13.641254,89 c 0.128297,0 0.258419,-0.0149 0.388514,-0.0464 5.018617,-1.20917 9.530186,-9.10725 12.623456,-16.13085 8.266748,11.95446 28.644956,10.97092 35.973544,-4.26262 -1.565328,0.0653 -6.051206,0.0813 -5.699495,-1.24616 z"
     id="path18"
     inkscape:connector-curvature="0"
     style="fill:#b00e19;stroke-width:0.26458332" 
     onclick="window.parent.testClick(window);" />
</svg>
