<?xml version="1.0" encoding="UTF-8" standalone="no"?>
<!-- Generator: Adobe Illustrator 19.0.0, SVG Export Plug-In . SVG Version: 6.00 Build 0)  -->

<svg
   xmlns:dc="http://purl.org/dc/elements/1.1/"
   xmlns:cc="http://creativecommons.org/ns#"
   xmlns:rdf="http://www.w3.org/1999/02/22-rdf-syntax-ns#"
   xmlns:svg="http://www.w3.org/2000/svg"
   xmlns="http://www.w3.org/2000/svg"
   xmlns:sodipodi="http://sodipodi.sourceforge.net/DTD/sodipodi-0.dtd"
   xmlns:inkscape="http://www.inkscape.org/namespaces/inkscape"
   version="1.1"
   id="Layer_1"
   x="0px"
   y="0px"
   viewBox="0 0 300 356"
   xml:space="preserve"
   sodipodi:docname="leaf5.svg"
   width="300"
   height="356"
   inkscape:version="0.92.3 (2405546, 2018-03-11)"><metadata
   id="metadata16"><rdf:RDF><cc:Work
       rdf:about=""><dc:format>image/svg+xml</dc:format><dc:type
         rdf:resource="http://purl.org/dc/dcmitype/StillImage" /><dc:title /></cc:Work></rdf:RDF></metadata><defs
   id="defs14">
		
	
	
	
</defs><sodipodi:namedview
   pagecolor="#ffffff"
   bordercolor="#666666"
   borderopacity="1"
   objecttolerance="10"
   gridtolerance="10"
   guidetolerance="10"
   inkscape:pageopacity="0"
   inkscape:pageshadow="2"
   inkscape:window-width="1600"
   inkscape:window-height="837"
   id="namedview12"
   showgrid="false"
   inkscape:zoom="0.6675088"
   inkscape:cx="-445.91783"
   inkscape:cy="157.54309"
   inkscape:window-x="-8"
   inkscape:window-y="-8"
   inkscape:window-maximized="1"
   inkscape:current-layer="Layer_1" />
<style
   type="text/css"
   id="style2">
	.st0{fill:#3D6731;}
	.st1{fill:#8BBC4D;}
</style>
<path
   id="XMLID_26_"
   class="st0"
   d="M 24.218882,7.8576398 C 10.746188,34.079846 3.5440303,63.698485 0,95.297272 c 17.828012,0.615684 34.312041,2.901833 44.644145,12.618468 -10.307535,9.48821 -25.778343,11.6025 -42.2317819,12.25506 0.7163992,24.47878 7.5662951,45.15019 17.9702479,63.65684 23.648776,-3.98749 46.768764,-7.2809 61.152424,-0.11744 -12.494863,12.1556 -29.892316,19.10568 -48.489297,24.74672 3.782602,16.28969 11.550787,28.77468 20.840706,39.66672 21.854824,-5.04303 41.683133,-4.81482 58.594906,2.89011 -11.18108,10.38362 -26.008978,15.61625 -43.714705,16.74009 20.43607,25.18946 45.154335,47.05504 75.949105,39.19969 23.5748,-6.0037 37.44282,-26.62334 48.82912,-45.74812 19.71922,-1.72252 40.1323,-2.91775 52.49103,-17.41072 32.34683,-37.89744 27.65043,-73.215 -0.81391,-98.46041 -7.98792,14.19067 -17.40523,25.93472 -27.51127,36.57955 -1.61304,-14.11848 -0.2628,-29.21696 9.70327,-47.18538 -7.74202,-16.55835 -19.96266,-30.71098 -36.68222,-42.484535 -6.91548,15.143035 -15.59798,27.994905 -26.42514,38.130715 -1.50694,-14.7202 1.38578,-33.291374 8.46144,-55.561749 C 159.804,60.004935 141.4788,48.95008 121.2961,39.237559 116.46996,50.646012 112.30516,62.362501 100.21779,70.177712 96.882585,61.36104 98.973753,45.581848 102.14698,28.395738 76.830224,15.464097 51.008316,7.4293951 24.218882,7.8576398 Z"
   inkscape:connector-curvature="0"
   style="fill:#3d6731;stroke-width:1.47;stroke:#354d00;stroke-opacity:1;stroke-miterlimit:4;stroke-dasharray:none;stroke-linejoin:round"
   inkscape:label="leafmain"
   onclick="window.parent.testClick(window);"   /><path
   id="XMLID_25_"
   class="st1"
   d="M 297.68807,340.03283 C 227.65932,311.08437 186.5283,254.60176 148.94267,193.56781 127.69479,159.05242 96.903565,132.80082 74.147861,99.259445 55.65495,71.979973 42.722945,35.210258 24.229648,7.9302364 41.503391,35.495888 51.542958,75.953326 68.816702,103.51898 c 21.922906,35.01581 51.881098,60.31013 73.940478,95.2312 40.44922,64.13793 82.64734,126.1992 148.22696,157.24982 2.22806,-5.33141 4.47588,-10.63577 6.70393,-15.96717 z"
   inkscape:connector-curvature="0"
   style="fill:#8bbc4d;stroke-width:0.66983366"
   inkscape:label="leafstem" />

  </svg>