<?xml version="1.0" encoding="UTF-8" standalone="no"?>
<!-- Created with Inkscape (http://www.inkscape.org/) -->

<svg
   xmlns:dc="http://purl.org/dc/elements/1.1/"
   xmlns:cc="http://creativecommons.org/ns#"
   xmlns:rdf="http://www.w3.org/1999/02/22-rdf-syntax-ns#"
   xmlns:svg="http://www.w3.org/2000/svg"
   xmlns="http://www.w3.org/2000/svg"
   xmlns:sodipodi="http://sodipodi.sourceforge.net/DTD/sodipodi-0.dtd"
   xmlns:inkscape="http://www.inkscape.org/namespaces/inkscape"
   width="330mm"
   height="286mm"
   viewBox="0 0 330 286"
   version="1.1"
   id="svg1417"
   sodipodi:docname="leaf4.svg"
   inkscape:version="0.92.3 (2405546, 2018-03-11)">
  <defs
     id="defs1411" />
  <sodipodi:namedview
     id="base"
     pagecolor="#ffffff"
     bordercolor="#666666"
     borderopacity="1.0"
     inkscape:pageopacity="0.0"
     inkscape:pageshadow="2"
     inkscape:zoom="0.69999999"
     inkscape:cx="573.69197"
     inkscape:cy="639.32565"
     inkscape:document-units="mm"
     inkscape:current-layer="svg1417"
     showgrid="false"
     inkscape:window-width="1600"
     inkscape:window-height="837"
     inkscape:window-x="-8"
     inkscape:window-y="-8"
     inkscape:window-maximized="1" />
  <metadata
     id="metadata1414">
    <rdf:RDF>
      <cc:Work
         rdf:about="">
        <dc:format>image/svg+xml</dc:format>
        <dc:type
           rdf:resource="http://purl.org/dc/dcmitype/StillImage" />
        <dc:title />
      </cc:Work>
    </rdf:RDF>
  </metadata>
  <path
     d="M 7.0401018,75.984936 C 39.786979,112.05342 14.437371,141.51742 75.527641,233.38842 c -6.266012,-29.77407 -4.829467,-43.9026 0.443968,-50.2371 0,0 14.116083,31.2487 35.842181,55.0069 21.94443,23.99797 47.21777,22.19592 47.21777,22.19592 0,0 -23.93264,-24.29064 17.13389,-24.85396 54.94324,-0.75344 85.93469,30.34818 85.93469,30.34818 l -9.92275,-36.55288 c 29.96046,-12.47199 68.63474,56.59521 68.63474,56.59521 0,0 15.43837,-26.92403 -6.94381,-89.78755 -10.81115,-30.36629 -36.489,-44.05801 -36.489,-44.05801 7.39695,-2.3778 11.67407,-10.19993 27.8911,2.81731 0,0 -17.46295,-46.10318 -40.09168,-70.389823 -20.32275,-21.809713 -45.42383,-33.082659 -45.42383,-33.082659 7.21291,-5.635563 21.94386,-3.281467 36.75983,-0.838234 C 247.64192,32.747539 178.49731,-0.39633527 120.99023,1.7200472 63.483159,3.8375394 14.0443,61.389861 14.0443,61.389861 9.9119845,68.693124 11.768427,66.678722 7.0401018,75.984936 Z"
     id="path22"
     inkscape:connector-curvature="0"
     style="display:inline;fill:#59601d;stroke:#564416;stroke-width:1.17451024;stroke-opacity:1"
     sodipodi:nodetypes="cccccccccccccccccc"
     inkscape:label="leafmain"
     onclick="window.parent.testClick(window);" />
  <path
     style="display:inline;fill:#85601d;fill-opacity:1;stroke:none;stroke-width:1.17635989;stroke-linecap:butt;stroke-linejoin:miter;stroke-miterlimit:4;stroke-dasharray:none;stroke-opacity:1"
     d="m 0.62703126,78.115168 c 0,0 31.22282074,-4.516689 38.60708074,-4.575285 8.319753,-0.06614 51.572736,3.775494 74.358808,10.896644 23.60361,7.37662 38.96749,15.980423 57.78162,29.061463 4.93182,3.42898 23.05407,16.81768 33.16731,25.09832 9.91489,8.11822 19.85674,15.60733 22.12656,16.23386 4.3115,1.19008 -12.87035,-16.99565 -21.58881,-24.99543 C 194.00177,119.6701 177.94209,106.48959 165.61751,97.878947 149.95951,86.939421 133.39581,77.700424 115.09704,69.953583 105.42067,65.857054 68.464302,60.841055 57.324244,60.315822 34.869037,59.257142 2.3208055,61.250739 2.3208055,61.250739 Z"
     id="path1968"
     inkscape:connector-curvature="0"
     sodipodi:nodetypes="cssssssssscc"
     inkscape:label="leafstem" />
</svg>
