<?xml version="1.0" encoding="UTF-8" standalone="no"?>
<!-- Created with Inkscape (http://www.inkscape.org/) -->

<svg
   xmlns:dc="http://purl.org/dc/elements/1.1/"
   xmlns:cc="http://creativecommons.org/ns#"
   xmlns:rdf="http://www.w3.org/1999/02/22-rdf-syntax-ns#"
   xmlns:svg="http://www.w3.org/2000/svg"
   xmlns="http://www.w3.org/2000/svg"
   xmlns:sodipodi="http://sodipodi.sourceforge.net/DTD/sodipodi-0.dtd"
   xmlns:inkscape="http://www.inkscape.org/namespaces/inkscape"
   width="276"
   height="340"
   viewBox="0 0 73.024998 89.958336"
   version="1.1"
   id="svg851"
   inkscape:version="0.92.3 (2405546, 2018-03-11)"
   sodipodi:docname="leaf1.svg">
  <defs
     id="defs845" />
  <sodipodi:namedview
     id="base"
     pagecolor="#ffffff"
     bordercolor="#666666"
     borderopacity="1.0"
     inkscape:pageopacity="0.0"
     inkscape:pageshadow="2"
     inkscape:zoom="1.4"
     inkscape:cx="73.828621"
     inkscape:cy="170.24851"
     inkscape:document-units="mm"
     inkscape:current-layer="svg851"
     showgrid="false"
     inkscape:window-width="1600"
     inkscape:window-height="837"
     inkscape:window-x="-8"
     inkscape:window-y="-8"
     inkscape:window-maximized="1"
     units="px" />
  <metadata
     id="metadata848">
    <rdf:RDF>
      <cc:Work
         rdf:about="">
        <dc:format>image/svg+xml</dc:format>
        <dc:type
           rdf:resource="http://purl.org/dc/dcmitype/StillImage" />
        <dc:title />
      </cc:Work>
    </rdf:RDF>
  </metadata>
  <path
     d="m 57.210695,68.007445 c 9.831705,-5.07995 11.515301,-14.45913 15.254446,-21.47162 -8.549772,-3.89094 -18.16518,-1.29792 -25.223496,2.98719 11.394466,-11.23852 20.153444,-22.52485 9.758441,-34.15223 -2.770399,2.32423 -6.408287,3.86855 -7.566765,7.30369 C 49.021788,15.811665 51.099905,2.4286458 40.666616,0.78092583 46.129283,8.1229558 34.652002,15.166525 32.274827,22.371875 c -0.323427,-3.62889 -0.369861,-7.25538 -2.665651,-10.91798 -16.857133,10.22805 -1.012481,24.01787 -2.914676,35.41726 -2.719996,-7.89395 -10.357485,-10.2661 -16.291745,-16.87857 -8.8418191,7.09118 -6.3670654,14.38066 -2.6730055,21.69092 -2.5336238,3.07234 -4.953847,-0.31692 -7.4463278,0.44219 0.9898857,10.80027 13.4923473,22.53203 23.6725083,19.92064 -3.079485,6.97741 -6.991218,13.56215 -10.41699,14.38762 -0.887201,0.21384 -1.433274,1.10628 -1.219438,1.99348 0.182377,0.75729 0.859181,1.26605 1.605174,1.26605 0.128297,0 0.258419,-0.0149 0.388514,-0.0464 5.018617,-1.20917 9.530186,-9.10725 12.623456,-16.13085 8.266748,11.95446 28.644956,10.97092 35.973544,-4.26262 -1.565328,0.0653 -6.051206,0.0813 -5.699495,-1.24616 z"
     id="path18"
     inkscape:connector-curvature="0"
     style="fill:#b00e19;stroke:#6e1728;stroke-width:0.52969581;stroke-miterlimit:4;stroke-dasharray:none;stroke-opacity:1"
     onclick="window.parent.testClick(window);"
     inkscape:label="leafmain" />
</svg>
